<svg width="57" height="81" viewBox="0 0 57 81" fill="none" xmlns="http://www.w3.org/2000/svg">
<path d="M0.328125 28.0781C0.328125 12.6142 12.8642 0.078125 28.3281 0.078125C43.7921 0.078125 56.3281 12.6142 56.3281 28.0781C56.3281 43.5421 43.7921 56.0781 28.3281 56.0781C12.8642 56.0781 0.328125 43.5421 0.328125 28.0781Z" fill="#785ECC" fill-opacity="0.1"/>
<path d="M21.5706 30.3176L24.5902 27.2961L27.1125 29.8021L29.9189 27.0117L28.3203 25.4121H32.7609V29.8555L31.1623 28.2559L27.1125 32.326L24.5902 29.8021L22.4054 32.0061C23.0448 32.9895 23.8797 33.7597 24.9099 34.3166C25.9638 34.8972 27.1006 35.1875 28.3203 35.1875C29.611 35.1875 30.8071 34.8617 31.9083 34.21C32.9741 33.582 33.8208 32.7348 34.4484 31.6684C35.0997 30.5664 35.4253 29.3697 35.4253 28.0781C35.4253 26.7866 35.0997 25.5898 34.4484 24.4879C33.8208 23.4215 32.9741 22.5743 31.9083 21.9463C30.8071 21.2946 29.611 20.9687 28.3203 20.9687C27.0296 20.9687 25.8336 21.2946 24.7323 21.9463C23.6665 22.5743 22.8199 23.4215 22.1922 24.4879C21.541 25.5898 21.2153 26.7866 21.2153 28.0781C21.2153 28.8483 21.3337 29.5948 21.5706 30.3176ZM20.2028 31.7039V31.6861C19.6937 30.5486 19.4391 29.346 19.4391 28.0781C19.4391 26.8695 19.67 25.7143 20.1318 24.6123C20.5818 23.5577 21.2183 22.6187 22.0413 21.7952C22.8643 20.9717 23.8027 20.3348 24.8566 19.8846C25.9579 19.4225 27.1125 19.1914 28.3203 19.1914C29.5282 19.1914 30.6827 19.4225 31.784 19.8846C32.8379 20.3348 33.7764 20.9717 34.5994 21.7952C35.4223 22.6187 36.0588 23.5577 36.5088 24.6123C36.9706 25.7143 37.2016 26.8695 37.2016 28.0781C37.2016 29.2867 36.9706 30.442 36.5088 31.5439C36.0588 32.5985 35.4223 33.5375 34.5994 34.361C33.7764 35.1845 32.8379 35.8214 31.784 36.2717C30.6827 36.7338 29.5341 36.9648 28.3381 36.9648C27.1421 36.9648 26.0053 36.7397 24.9277 36.2895C23.8738 35.851 22.9383 35.2349 22.1212 34.441C21.3041 33.6471 20.6647 32.7348 20.2028 31.7039Z" fill="#785ECC"/>
</svg>
