<svg width="48" height="49" viewBox="0 0 48 49" fill="none" xmlns="http://www.w3.org/2000/svg">
<path d="M0 24.0781C0 10.8233 10.7452 0.078125 24 0.078125C37.2548 0.078125 48 10.8233 48 24.0781C48 37.333 37.2548 48.0781 24 48.0781C10.7452 48.0781 0 37.333 0 24.0781Z" fill="#785ECC" fill-opacity="0.1"/>
<path d="M23.9922 17.4128C24.8983 17.4128 25.7644 17.5861 26.5906 17.9328C27.3812 18.2705 28.0852 18.7483 28.7026 19.3661C29.32 19.9839 29.7974 20.6883 30.135 21.4794C30.4815 22.3061 30.6547 23.1728 30.6547 24.0794C30.6547 24.9861 30.4815 25.8528 30.135 26.6794C29.7974 27.4705 29.32 28.175 28.7026 28.7928C28.0852 29.4105 27.3812 29.8883 26.5906 30.2261C25.7644 30.5728 24.8983 30.7461 23.9922 30.7461C23.0861 30.7461 22.22 30.5728 21.3938 30.2261C20.6032 29.8883 19.8992 29.4105 19.2818 28.7928C18.6644 28.175 18.1869 27.4705 17.8494 26.6794C17.5029 25.8528 17.3297 24.9861 17.3297 24.0794H18.6622C18.6622 25.0483 18.9065 25.9461 19.3951 26.7728C19.8659 27.5728 20.501 28.2083 21.3005 28.6794C22.1267 29.1683 23.0239 29.4128 23.9922 29.4128C24.9605 29.4128 25.8577 29.1683 26.6838 28.6794C27.4833 28.2083 28.1185 27.5728 28.5893 26.7728C29.0779 25.9461 29.3222 25.0483 29.3222 24.0794C29.3222 23.1105 29.0779 22.2128 28.5893 21.3861C28.1185 20.5861 27.4833 19.9505 26.6838 19.4794C25.8577 18.9905 24.9605 18.7461 23.9922 18.7461C23.095 18.7461 22.251 18.9594 21.4604 19.3861C20.6965 19.795 20.0702 20.3594 19.5816 21.0794H21.3272V22.4128H17.3297V18.4128H18.6622V20.0794C19.284 19.2528 20.0524 18.6039 20.9674 18.1328C21.909 17.6528 22.9173 17.4128 23.9922 17.4128ZM24.6584 20.7461V23.7994L26.8171 25.9594L25.871 26.9061L23.3259 24.3594V20.7461H24.6584Z" fill="#785ECC"/>
</svg>
