<svg width="48" height="49" viewBox="0 0 48 49" fill="none" xmlns="http://www.w3.org/2000/svg">
<path d="M0 24.0781C0 10.8233 10.7452 0.078125 24 0.078125C37.2548 0.078125 48 10.8233 48 24.0781C48 37.333 37.2548 48.0781 24 48.0781C10.7452 48.0781 0 37.333 0 24.0781Z" fill="#785ECC" fill-opacity="0.1"/>
<path d="M27.9897 21.0781H31.321V22.4115H27.9897V21.0781ZM26.6572 24.4115H31.321V25.7448H26.6572V24.4115ZM28.656 27.7448H31.321V29.0781H28.656V27.7448ZM16.6635 31.0781C16.6635 30.1092 16.9077 29.2115 17.3963 28.3848C17.8671 27.5848 18.5023 26.9492 19.3018 26.4781C20.128 25.9892 21.0252 25.7448 21.9935 25.7448C22.9617 25.7448 23.859 25.9892 24.6851 26.4781C25.4846 26.9492 26.1198 27.5848 26.5906 28.3848C27.0792 29.2115 27.3235 30.1092 27.3235 31.0781H25.991C25.991 30.3581 25.8088 29.687 25.4446 29.0648C25.0893 28.4603 24.6096 27.9803 24.0055 27.6248C23.3837 27.2603 22.713 27.0781 21.9935 27.0781C21.2739 27.0781 20.6032 27.2603 19.9814 27.6248C19.3773 27.9803 18.8976 28.4603 18.5423 29.0648C18.1781 29.687 17.996 30.3581 17.996 31.0781H16.6635ZM21.9935 25.0781C21.265 25.0781 20.5943 24.8959 19.9814 24.5315C19.3773 24.1759 18.8976 23.6959 18.5423 23.0915C18.1781 22.4781 17.996 21.807 17.996 21.0781C17.996 20.3492 18.1781 19.6781 18.5423 19.0648C18.8976 18.4603 19.3773 17.9803 19.9814 17.6248C20.5943 17.2603 21.265 17.0781 21.9935 17.0781C22.7219 17.0781 23.3926 17.2603 24.0055 17.6248C24.6096 17.9803 25.0893 18.4603 25.4446 19.0648C25.8088 19.6781 25.991 20.3492 25.991 21.0781C25.991 21.807 25.8088 22.4781 25.4446 23.0915C25.0893 23.6959 24.6096 24.1759 24.0055 24.5315C23.3926 24.8959 22.7219 25.0781 21.9935 25.0781ZM21.9935 23.7448C22.4732 23.7448 22.9173 23.6248 23.326 23.3848C23.7346 23.1448 24.0588 22.8203 24.2987 22.4115C24.5385 22.0026 24.6585 21.5581 24.6585 21.0781C24.6585 20.5981 24.5385 20.1537 24.2987 19.7448C24.0588 19.3359 23.7346 19.0115 23.326 18.7715C22.9173 18.5315 22.4732 18.4115 21.9935 18.4115C21.5138 18.4115 21.0696 18.5315 20.661 18.7715C20.2523 19.0115 19.9281 19.3359 19.6882 19.7448C19.4484 20.1537 19.3285 20.5981 19.3285 21.0781C19.3285 21.5581 19.4484 22.0026 19.6882 22.4115C19.9281 22.8203 20.2523 23.1448 20.661 23.3848C21.0696 23.6248 21.5138 23.7448 21.9935 23.7448Z" fill="#785ECC"/>
</svg>
