<svg width="48" height="49" viewBox="0 0 48 49" fill="none" xmlns="http://www.w3.org/2000/svg">
<path d="M0 24.0781C0 10.8233 10.7452 0.078125 24 0.078125C37.2548 0.078125 48 10.8233 48 24.0781C48 37.333 37.2548 48.0781 24 48.0781C10.7452 48.0781 0 37.333 0 24.0781Z" fill="#785ECC" fill-opacity="0.1"/>
<path d="M23.9922 30.7461C23.0861 30.7461 22.22 30.5728 21.3938 30.2261C20.6032 29.8883 19.8992 29.4105 19.2818 28.7928C18.6644 28.175 18.1869 27.4705 17.8494 26.6794C17.5029 25.8528 17.3297 24.9861 17.3297 24.0794C17.3297 23.1728 17.5029 22.3061 17.8494 21.4794C18.1869 20.6883 18.6644 19.9839 19.2818 19.3661C19.8992 18.7483 20.6032 18.2705 21.3938 17.9328C22.22 17.5861 23.0861 17.4128 23.9922 17.4128C24.8983 17.4128 25.7644 17.5861 26.5906 17.9328C27.3812 18.2705 28.0852 18.7483 28.7026 19.3661C29.32 19.9839 29.7974 20.6883 30.135 21.4794C30.4815 22.3061 30.6547 23.1728 30.6547 24.0794C30.6547 24.9861 30.4815 25.8528 30.135 26.6794C29.7974 27.4705 29.32 28.175 28.7026 28.7928C28.0852 29.4105 27.3812 29.8883 26.5906 30.2261C25.7644 30.5728 24.8983 30.7461 23.9922 30.7461ZM23.9922 29.4128C24.9605 29.4128 25.8577 29.1683 26.6838 28.6794C27.4833 28.2083 28.1185 27.5728 28.5893 26.7728C29.0779 25.9461 29.3222 25.0483 29.3222 24.0794C29.3222 23.1105 29.0779 22.2128 28.5893 21.3861C28.1185 20.5861 27.4833 19.9505 26.6838 19.4794C25.8577 18.9905 24.9605 18.7461 23.9922 18.7461C23.0239 18.7461 22.1267 18.9905 21.3005 19.4794C20.501 19.9505 19.8659 20.5861 19.3951 21.3861C18.9065 22.2128 18.6622 23.1105 18.6622 24.0794C18.6622 25.0483 18.9065 25.9461 19.3951 26.7728C19.8659 27.5728 20.501 28.2083 21.3005 28.6794C22.1267 29.1683 23.0239 29.4128 23.9922 29.4128Z" fill="#785ECC"/>
</svg>
