<svg width="48" height="49" viewBox="0 0 48 49" fill="none" xmlns="http://www.w3.org/2000/svg">
<path d="M0 24.0781C0 10.8233 10.7452 0.078125 24 0.078125C37.2548 0.078125 48 10.8233 48 24.0781C48 37.333 37.2548 48.0781 24 48.0781C10.7452 48.0781 0 37.333 0 24.0781Z" fill="#785ECC" fill-opacity="0.1"/>
<path d="M21.3272 18.7461L19.3285 17.4128L17.3297 18.7461V28.7461C17.3297 29.1105 17.4185 29.4461 17.5962 29.7528C17.7739 30.0594 18.0159 30.3016 18.3224 30.4794C18.6289 30.6572 18.9642 30.7461 19.3285 30.7461H28.656C29.0202 30.7461 29.3555 30.6572 29.662 30.4794C29.9685 30.3016 30.2105 30.0594 30.3882 29.7528C30.5659 29.4461 30.6547 29.1105 30.6547 28.7461V26.7461H29.3222V18.7461L27.3235 17.4128L25.3247 18.7461L23.326 17.4128L21.3272 18.7461ZM27.9897 26.7461H19.9947V28.7461C19.9947 28.9328 19.9303 29.0905 19.8015 29.2194C19.6727 29.3483 19.515 29.4128 19.3285 29.4128C19.1419 29.4128 18.9842 29.3483 18.8554 29.2194C18.7266 29.0905 18.6622 28.9328 18.6622 28.7461V19.4661L19.3285 19.0128L21.3272 20.3461L23.326 19.0128L25.3247 20.3461L27.3235 19.0128L27.9897 19.4661V26.7461ZM28.656 29.4128H21.2073C21.2872 29.1994 21.3272 28.9772 21.3272 28.7461V28.0794H29.3222V28.7461C29.3222 28.9328 29.2578 29.0905 29.129 29.2194C29.0002 29.3483 28.8425 29.4128 28.656 29.4128Z" fill="#785ECC"/>
</svg>
