<svg width="56" height="81" viewBox="0 0 56 81" fill="none" xmlns="http://www.w3.org/2000/svg">
<path d="M0 28.0781C0 12.6142 12.536 0.078125 28 0.078125C43.464 0.078125 56 12.6142 56 28.0781C56 43.5421 43.464 56.0781 28 56.0781C12.536 56.0781 0 43.5421 0 28.0781Z" fill="#785ECC" fill-opacity="0.1"/>
<path d="M32.273 31.6881L32.4328 31.848L32.5927 31.6881C32.8414 31.4274 33.1374 31.2526 33.4808 31.1638C33.8242 31.0749 34.1676 31.0749 34.511 31.1638C34.8545 31.2526 35.1564 31.4274 35.4169 31.6881C35.6775 31.9488 35.8521 32.2509 35.9409 32.5945C36.0297 32.9382 36.0297 33.2788 35.9409 33.6165C35.8521 33.9542 35.6775 34.2534 35.4169 34.5141L32.4328 37.5L29.4487 34.5141C29.1882 34.2534 29.0136 33.9542 28.9247 33.6165C28.8359 33.2788 28.8359 32.9382 28.9247 32.5945C29.0136 32.2509 29.1882 31.9488 29.4487 31.6881C29.7093 31.4274 30.0112 31.2526 30.3546 31.1638C30.698 31.0749 31.0414 31.0749 31.3848 31.1638C31.7283 31.2526 32.0243 31.4274 32.273 31.6881ZM27.0863 30.2129V31.9902C26.1271 31.9902 25.2331 32.2331 24.4042 32.7189C23.599 33.1929 22.9595 33.8327 22.4858 34.6385C22.0003 35.4679 21.7576 36.3625 21.7576 37.3223H19.9813C19.9813 36.0544 20.2951 34.8755 20.9227 33.7854C21.5267 32.7308 22.3497 31.8895 23.3917 31.2615C24.4575 30.598 25.618 30.2484 26.8732 30.2129H27.0863ZM27.0863 18.6602C28.0573 18.6602 28.9573 18.9031 29.7862 19.3889C30.5796 19.8628 31.2131 20.5027 31.6868 21.3084C32.1723 22.126 32.4151 23.0146 32.4151 23.9744C32.4151 24.9342 32.1842 25.8169 31.7223 26.6227C31.2724 27.4165 30.6536 28.0564 29.8662 28.5422C29.0787 29.028 28.2172 29.2887 27.2817 29.3242H27.0863C26.1271 29.3242 25.2331 29.0813 24.4042 28.5955C23.599 28.1215 22.9595 27.4817 22.4858 26.676C22.0003 25.8584 21.7576 24.9697 21.7576 24.01C21.7576 23.0502 21.9885 22.1674 22.4503 21.3617C22.9003 20.5678 23.519 19.928 24.3065 19.4422C25.094 18.9564 25.9554 18.6957 26.8909 18.6602H27.0863ZM27.0863 20.4375C26.4469 20.4375 25.8548 20.5975 25.3101 20.9174C24.7654 21.2373 24.3331 21.6698 24.0134 22.2148C23.6937 22.7599 23.5338 23.3523 23.5338 23.9922C23.5338 24.632 23.6937 25.2245 24.0134 25.7695C24.3331 26.3146 24.7654 26.7471 25.3101 27.067C25.8548 27.3869 26.4469 27.5469 27.0863 27.5469C27.7258 27.5469 28.3179 27.3869 28.8626 27.067C29.4073 26.7471 29.8395 26.3146 30.1592 25.7695C30.479 25.2245 30.6388 24.632 30.6388 23.9922C30.6388 23.3523 30.479 22.7599 30.1592 22.2148C29.8395 21.6698 29.4073 21.2373 28.8626 20.9174C28.3179 20.5975 27.7258 20.4375 27.0863 20.4375Z" fill="#785ECC"/>
</svg>
